<svg version="1.0" xmlns="http://www.w3.org/2000/svg" width="2.383cm" height="2.33cm" viewBox="0 0 2383 2330">
	<path fill="none" stroke="#bdbcbc" stroke-width="29" stroke-linejoin="miter" d="M 613,1451 876,1059 613,743 V 505 l 374,455 750,-474 121,102 -804,506 710,448 25,187 -834,-522 -335,493 z" />
	<path fill="#bdbcbc" stroke="#bdbcbc" stroke-width="29" stroke-linejoin="miter" d="m 630,582 746,604 -746,456 z m 839,490 -670,-543 h 966 z m 273,592 H 870 l 665,-400 z m 23,-864 v 587 L 1608,1086 Z M 1912,381 H 482 v 1431 h 1430 z" />
	<path fill="#231f20" d="m 1981,1731 c 0,-29 10,-51 29,-69 20,-17 46,-26 77,-26 30,0 55,9 75,26 20,18 29,40 29,69 0,25 -7,45 -22,61 -10,10 -22,18 -37,24 -14,6 -30,9 -45,9 -31,0 -57,-9 -77,-27 -19,-17 -29,-40 -29,-67 z m 8,0 c 0,18 9,34 27,46 18,12 42,18 71,18 28,0 51,-6 69,-18 18,-12 27,-28 27,-46 0,-20 -9,-35 -27,-47 -18,-12 -41,-18 -69,-18 -29,0 -53,6 -71,17 -18,13 -27,28 -27,48 z m 151,-258 h -120 c -10,0 -17,1 -20,4 -4,3 -5,9 -5,17 v 3 h -8 v -63 h 8 v 2 c 0,9 1,14 5,17 3,3 10,4 20,4 h 137 l 6,-4 c 10,-7 14,-14 14,-20 v -3 h 8 v 38 l -146,120 h 113 c 10,0 17,-2 20,-4 4,-3 5,-9 5,-18 v -2 h 8 v 61 h -8 v -2 c 0,-9 -1,-15 -5,-17 -3,-3 -10,-4 -20,-4 h -171 z m -91,-194 -29,-12 c -9,-4 -14,-6 -16,-6 -5,0 -8,5 -9,13 v 3 h -8 v -49 h 8 v 2 c 0,5 1,9 5,13 4,3 11,7 21,11 l 170,70 v 8 l -170,73 c -11,4 -18,8 -21,11 -4,2 -5,5 -5,9 v 2 h -8 v -59 h 8 v 3 c 0,5 0,8 1,10 1,2 3,3 6,3 3,0 9,-2 19,-6 l 28,-12 z m 10,3 v 79 l 94,-41 z m -28,-65 v 10 l -47,-4 c 2,-30 3,-59 3,-87 v -49 h 8 v 2 c 0,9 1,15 5,18 3,2 10,4 21,4 h 131 c 10,0 17,-2 20,-5 4,-2 5,-8 5,-17 v -2 h 8 v 73 h -8 v -2 c 0,-9 -1,-15 -5,-18 -3,-2 -10,-4 -20,-4 h -131 c -9,0 -15,3 -18,10 -3,6 -4,18 -4,35 v 6 c 0,12 2,18 6,21 6,5 14,8 23,9 z m -44,-144 v -74 h 8 v 2 c 0,9 1,15 5,18 3,3 10,4 20,4 h 132 c 10,0 17,-1 20,-4 4,-3 5,-9 5,-18 v -2 h 8 v 74 h -8 v -2 c 0,-8 -1,-14 -5,-18 -3,-3 -10,-4 -20,-4 h -132 c -10,0 -17,1 -20,4 -4,4 -5,10 -5,18 v 2 z m 165,-286 h -132 c -10,0 -17,1 -20,4 -4,3 -5,9 -5,18 v 2 h -8 v -61 h 8 v 2 c 0,9 1,15 5,18 3,3 10,4 20,4 h 132 c 10,0 17,-1 20,-4 4,-3 5,-9 5,-18 v -2 h 8 v 46 l -142,74 142,68 v 48 h -8 v -2 c 0,-9 -1,-15 -5,-18 -3,-3 -10,-4 -20,-4 h -127 c -14,0 -22,1 -25,4 -4,3 -5,9 -5,18 v 2 h -8 v -72 h 8 v 2 c 0,9 1,15 5,18 3,3 10,4 20,4 h 145 L 2006,862 Z M 1987,655 v -74 h 8 v 2 c 0,9 1,15 5,17 3,3 10,4 20,4 h 132 c 10,0 17,-1 20,-4 4,-2 5,-8 5,-17 v -2 h 8 v 74 h -8 v -2 c 0,-9 -1,-15 -5,-18 -3,-2 -10,-4 -20,-4 h -132 c -10,0 -17,2 -20,4 -4,3 -5,9 -5,18 v 2 z m 0,-280 h 8 v 3 c 0,9 1,14 5,17 3,3 10,4 20,4 h 132 c 10,0 17,-1 20,-4 4,-3 5,-8 5,-17 v -3 h 8 v 75 c 0,25 -2,43 -4,53 -3,10 -8,22 -17,33 -15,20 -38,30 -70,30 -30,0 -56,-9 -78,-27 -11,-9 -19,-20 -23,-33 -4,-13 -6,-32 -6,-56 z m 190,50 h -157 c -16,0 -24,14 -24,43 0,21 8,38 24,51 16,12 38,19 65,19 26,0 48,-8 66,-23 10,-9 17,-19 21,-30 4,-11 5,-26 5,-47 z m 6,-122 h -74 v -8 h 2 c 9,0 15,-2 18,-5 2,-3 4,-10 4,-21 V 137 c 0,-10 -2,-17 -4,-20 -3,-3 -9,-5 -18,-5 h -2 v -8 h 74 v 8 h -2 c -9,0 -14,2 -17,5 -3,3 -4,10 -4,20 v 132 c 0,11 1,17 4,21 3,3 8,5 17,5 h 2 z m -283,0 v -8 h 3 c 8,0 14,-2 17,-5 3,-3 4,-10 4,-21 V 138 c 0,-11 -1,-18 -4,-21 -3,-3 -9,-5 -17,-5 h -3 v -8 h 74 c 25,0 43,2 53,5 10,2 21,8 33,16 20,15 31,39 31,71 0,30 -9,56 -28,77 -9,11 -21,19 -33,23 -13,5 -32,7 -56,7 z m 50,-191 v 157 c 0,17 14,25 42,25 21,0 38,-8 51,-24 12,-16 18,-38 18,-65 0,-26 -7,-49 -22,-66 -9,-10 -19,-17 -30,-21 -11,-4 -26,-6 -46,-6 z m -256,0 v -8 h 74 v 8 h -2 c -8,0 -14,2 -17,5 -3,3 -4,10 -4,21 v 88 c 0,28 4,48 14,58 9,11 22,17 39,17 15,0 27,-6 35,-16 8,-10 12,-27 13,-53 v -94 c 0,-11 -2,-18 -5,-21 -2,-3 -8,-5 -17,-5 h -2 v -8 h 63 v 8 h -2 c -9,0 -14,2 -17,5 -3,3 -5,10 -5,21 v 84 c 0,21 -1,36 -3,45 -2,9 -7,17 -15,24 -13,12 -31,18 -55,18 -20,0 -36,-5 -48,-15 -9,-6 -14,-14 -17,-23 -3,-9 -4,-25 -4,-45 v -88 c 0,-11 -1,-18 -4,-21 -3,-3 -9,-5 -19,-5 z m -110,2 h -20 c -15,0 -26,2 -31,6 -6,4 -10,12 -12,24 v 2 h -11 l 5,-46 c 22,3 45,4 69,4 h 28 c 24,0 46,-1 68,-4 l 5,46 h -10 l -1,-2 c -1,-12 -5,-20 -11,-24 -6,-4 -16,-6 -31,-6 h -20 v 155 c 0,11 1,18 5,21 3,3 10,5 20,5 h 2 v 8 h -83 v -8 h 2 c 11,0 18,-2 21,-5 3,-3 5,-10 5,-21 z m -212,187 -3,-44 h 10 v 2 c 3,13 8,24 16,31 8,7 19,11 32,11 11,0 21,-4 29,-12 8,-7 12,-17 12,-27 0,-14 -11,-28 -31,-42 l -20,-13 c -20,-13 -32,-23 -38,-31 -6,-7 -9,-16 -9,-26 0,-15 6,-29 18,-38 13,-9 30,-14 50,-14 16,0 32,3 49,8 l 4,38 h -10 l -1,-2 c -7,-24 -22,-36 -47,-36 -11,0 -20,3 -28,10 -7,6 -10,16 -10,26 0,12 8,25 27,37 l 28,19 c 18,12 30,22 35,29 6,7 8,16 8,27 0,17 -6,30 -19,40 -12,10 -29,15 -51,15 -19,0 -35,-3 -51,-8 z m -106,2 h -75 v -8 h 3 c 8,0 15,-2 18,-5 3,-3 4,-10 4,-21 V 137 c 0,-10 -1,-17 -4,-20 -3,-3 -10,-5 -18,-5 h -3 v -8 h 75 v 8 h -2 c -9,0 -15,2 -18,5 -3,3 -4,10 -4,20 v 132 c 0,11 1,17 4,21 3,3 9,5 18,5 h 2 z m -95,-45 h 10 l -4,47 c -29,-1 -58,-2 -87,-2 h -49 v -8 h 2 c 9,0 15,-2 18,-5 2,-4 4,-11 4,-21 V 138 c 0,-11 -2,-18 -5,-21 -2,-3 -8,-5 -17,-5 h -2 v -8 h 74 v 8 h -2 c -10,0 -16,2 -19,5 -2,3 -4,10 -4,21 v 131 c 0,8 3,14 10,17 7,3 19,5 36,5 h 6 c 11,0 17,-2 20,-6 5,-6 8,-14 9,-24 z m -169,40 c -21,7 -42,11 -60,11 -35,0 -60,-12 -77,-34 -16,-20 -23,-43 -23,-71 0,-32 9,-57 27,-76 17,-20 40,-30 69,-30 22,0 42,3 60,8 l 4,40 h -10 v -2 c 0,-6 -3,-13 -9,-22 -10,-11 -24,-16 -43,-16 -21,0 -37,9 -50,28 -13,18 -19,42 -19,71 0,29 7,52 21,67 14,16 34,24 60,24 7,0 16,-1 26,-3 v -45 c 0,-10 -1,-17 -4,-20 -3,-4 -8,-5 -17,-5 h -2 v -8 h 71 v 8 h -2 c -9,0 -15,1 -18,5 -3,3 -4,10 -4,20 z M 735,202 v 68 c 0,8 4,14 11,18 7,3 20,5 38,5 h 5 c 8,0 14,-2 18,-6 3,-4 6,-11 8,-21 v -3 h 10 l -4,43 c -16,-1 -28,-1 -36,-1 -9,0 -18,-1 -30,-1 -11,-1 -18,-1 -20,-1 h -50 v -8 h 2 c 9,0 15,-2 18,-5 3,-4 4,-11 4,-21 V 138 c 0,-11 -1,-18 -4,-21 -2,-3 -8,-5 -18,-5 h -2 v -8 h 131 l 4,37 h -10 v -3 c -2,-11 -5,-18 -10,-21 -5,-2 -17,-3 -38,-3 h -27 v 80 h 30 c 13,0 22,-1 26,-4 3,-2 5,-7 5,-16 v -2 h 10 v 52 h -10 v -2 c 0,-8 -1,-13 -4,-16 -3,-3 -12,-4 -27,-4 z M 476,303 v -8 h 2 c 9,0 15,-2 17,-5 3,-3 4,-10 4,-21 V 138 c 0,-11 -1,-18 -4,-21 -2,-3 -8,-5 -17,-5 h -2 v -8 h 73 c 26,0 44,2 55,5 10,2 21,8 33,16 20,15 29,39 29,71 0,30 -9,56 -26,77 -10,11 -21,19 -34,23 -13,5 -31,7 -57,7 z m 49,-191 v 157 c 0,17 14,25 43,25 22,0 38,-8 51,-24 13,-16 19,-38 19,-65 0,-26 -8,-49 -23,-66 -9,-10 -19,-17 -29,-21 -11,-4 -28,-6 -47,-6 z m -260,0 h -9 C 247,98 232,90 213,89 l -12,23 c -16,-2 -23,-10 -23,-23 0,-6 2,-11 7,-15 4,-5 10,-7 17,-7 24,0 46,16 63,45 z m 71,146 31,13 c 9,3 15,5 17,5 6,0 9,-4 10,-14 v -2 h 8 v 52 h -8 v -2 c 0,-6 -2,-10 -6,-14 -4,-3 -11,-7 -22,-12 L 184,210 v -9 l 182,-78 c 11,-5 19,-8 23,-11 3,-3 5,-6 5,-10 v -2 h 8 v 63 h -8 v -2 c 0,-6 -1,-9 -2,-11 -1,-2 -3,-3 -6,-3 -3,0 -9,2 -20,6 l -30,13 z m -11,-4 V 171 L 225,214 Z M 201,409 v 21 c 0,16 2,28 7,34 4,6 13,10 26,12 h 3 v 11 l -50,-5 c 2,-23 3,-48 3,-73 v -30 c 0,-25 -1,-50 -3,-73 l 50,-5 v 11 h -3 c -13,2 -22,6 -26,12 -5,7 -7,18 -7,34 v 21 h 166 c 11,0 18,-1 22,-5 3,-3 5,-11 5,-22 v -2 h 8 v 88 h -8 v -2 c 0,-11 -2,-19 -5,-22 -4,-3 -11,-5 -22,-5 z m 201,89 v 79 h -8 v -2 c 0,-10 -2,-16 -6,-19 -4,-3 -11,-4 -23,-4 H 226 c -11,0 -18,1 -22,4 -3,3 -5,9 -5,19 v 2 h -9 v -79 h 9 v 2 c 0,10 2,16 5,20 4,3 11,4 22,4 h 139 c 12,0 19,-1 23,-4 4,-4 6,-10 6,-20 v -2 z m -2,230 -46,3 v -11 l 2,-1 c 14,-3 25,-8 33,-17 7,-9 11,-19 11,-33 0,-12 -4,-22 -12,-30 -8,-9 -18,-13 -29,-13 -15,0 -29,11 -45,33 l -14,21 c -15,20 -26,33 -33,40 -8,7 -18,10 -29,10 -16,0 -29,-8 -39,-21 -10,-13 -15,-30 -15,-52 0,-17 3,-34 9,-51 l 40,-5 v 11 l -3,1 c -25,7 -37,23 -37,49 0,12 3,22 10,29 7,8 16,12 27,12 13,0 26,-10 39,-29 l 21,-30 c 14,-19 24,-31 32,-37 7,-6 17,-9 28,-9 18,0 32,7 43,21 10,13 16,31 16,54 0,19 -3,37 -9,55 z m -99,140 h 64 c 12,0 19,-1 23,-4 4,-4 6,-10 6,-20 v -1 h 8 v 78 h -8 v -2 c 0,-10 -2,-16 -6,-19 -4,-3 -11,-4 -23,-4 H 226 c -11,0 -18,1 -22,4 -3,3 -5,9 -5,19 v 2 h -9 v -81 c 0,-25 4,-43 10,-53 6,-11 18,-16 33,-16 15,0 27,4 38,13 10,8 18,20 24,37 4,-6 8,-10 12,-14 4,-3 13,-10 28,-19 l 22,-14 c 15,-9 25,-16 29,-20 6,-5 8,-9 8,-14 v -1 h 8 v 40 l -101,61 z m -8,0 v -31 c -4,-12 -10,-21 -20,-28 -9,-6 -21,-9 -34,-9 -14,0 -24,4 -31,13 -6,9 -9,23 -9,42 v 13 z m 3,165 h 71 c 9,0 16,-4 19,-12 4,-7 6,-21 6,-41 v -6 c 0,-8 -2,-15 -7,-19 -4,-4 -12,-7 -22,-8 l -3,-1 v -10 l 46,4 c -1,17 -2,30 -2,39 0,9 0,20 -1,32 0,12 -1,19 -1,22 v 52 h -8 v -2 c 0,-9 -2,-15 -6,-18 -3,-3 -11,-5 -22,-5 H 228 c -12,0 -20,2 -24,5 -3,2 -5,9 -5,18 v 2 h -9 V 945 l 41,-4 v 11 h -3 c -12,2 -20,5 -23,10 -3,5 -4,19 -4,41 v 30 h 86 v -32 c 0,-15 -1,-25 -3,-29 -3,-4 -9,-6 -17,-6 h -3 v -10 h 55 v 10 h -2 c -8,0 -14,2 -17,5 -3,3 -4,13 -4,30 z m 71,157 -141,-58 c -9,-4 -15,-5 -17,-5 -6,0 -9,4 -10,14 v 2 h -9 v -52 h 9 v 2 c 0,6 2,10 6,14 4,3 11,7 21,11 l 183,76 v 8 l -183,78 c -18,7 -27,15 -27,21 v 2 h -9 v -62 h 9 v 2 c 0,6 0,9 2,11 1,2 3,3 6,3 3,0 9,-2 19,-7 z m 35,118 v 79 h -8 v -2 c 0,-10 -2,-17 -6,-20 -4,-3 -11,-4 -23,-4 H 226 c -11,0 -18,1 -22,4 -3,3 -5,10 -5,20 v 2 h -9 v -79 h 9 v 2 c 0,10 2,16 5,19 4,3 11,4 22,4 h 139 c 12,0 19,-1 23,-4 4,-3 6,-9 6,-19 v -2 z m -164,254 h 128 c 12,0 19,-1 23,-4 3,-3 5,-9 5,-18 v -3 h 8 v 65 h -8 v -1 c 0,-9 -2,-16 -5,-18 -4,-3 -11,-5 -23,-5 H 220 l -5,4 c -11,8 -16,16 -16,22 v 3 h -9 v -41 L 346,1439 H 226 c -11,0 -18,2 -22,4 -3,3 -5,10 -5,19 v 2 h -9 v -65 h 9 v 2 c 0,10 2,16 5,19 4,3 11,4 22,4 h 183 z m -39,261 h -9 v -78 h 9 v 2 c 0,10 2,16 5,19 4,3 11,5 22,5 h 96 c 29,0 49,-6 61,-16 11,-10 17,-24 17,-41 0,-16 -5,-29 -17,-38 -11,-9 -29,-13 -55,-13 H 226 c -11,0 -18,1 -22,4 -3,3 -5,9 -5,19 v 2 h -9 v -68 h 9 v 1 c 0,10 2,16 5,19 4,3 11,5 22,5 h 91 c 22,0 38,1 47,4 9,2 18,8 25,16 13,14 20,33 20,59 0,22 -5,39 -16,52 -7,9 -15,15 -24,18 -10,2 -26,4 -47,4 h -96 c -11,0 -18,1 -22,4 -3,3 -5,10 -5,19 z m 1894,271 12,-152 h 2 l 10,152 z m -84,156 h 66 l 12,-102 h 35 l 8,102 h 77 l -44,-373 h -98 z m -206,-146 v 73 c 0,11 -1,25 -13,25 -11,0 -13,-14 -13,-25 v -227 c 0,-11 2,-25 13,-25 12,0 13,14 13,25 v 59 h 74 v -71 c 0,-50 -41,-68 -87,-68 -46,0 -87,18 -87,68 v 251 c 0,50 41,68 87,68 46,0 87,-18 87,-68 v -85 z m -318,0 v 73 c 0,11 -1,25 -13,25 -11,0 -13,-14 -13,-25 v -227 c 0,-11 2,-25 13,-25 12,0 13,14 13,25 v 59 h 74 v -71 c 0,-50 -41,-68 -87,-68 -45,0 -87,18 -87,68 v 251 c 0,50 42,68 87,68 46,0 87,-18 87,-68 v -85 z m -418,85 c 0,50 42,68 87,68 46,0 87,-18 87,-68 v -251 c 0,-50 -41,-68 -87,-68 -45,0 -87,18 -87,68 z m 100,-12 c 0,11 -1,25 -13,25 -11,0 -13,-14 -13,-25 v -227 c 0,-11 2,-25 13,-25 12,0 13,14 13,25 z m -319,-73 v 73 c 0,11 -1,25 -13,25 -11,0 -13,-14 -13,-25 v -227 c 0,-11 2,-25 13,-25 12,0 13,14 13,25 v 59 h 75 v -71 c 0,-50 -42,-68 -88,-68 -45,0 -86,18 -86,68 v 251 c 0,50 41,68 86,68 46,0 88,-18 88,-68 v -85 z m -324,146 h 74 V 1877 H 524 Z M 300,2008 c 0,18 -5,24 -17,24 h -9 v -102 h 9 c 12,0 17,6 17,24 z m -101,242 h 88 c 57,0 87,-20 87,-84 v -33 c 0,-60 -18,-77 -56,-81 v -2 c 47,-9 56,-34 56,-69 v -29 c 0,-57 -42,-75 -87,-75 h -88 z m 75,-172 h 9 c 12,0 17,3 17,17 v 84 c 0,14 -5,18 -17,18 h -9 z" />
</svg>
